<svg
   xmlns="http://www.w3.org/2000/svg" width="21" height="21" viewBox="0 0 21 21">
  <path d="M12.75 2.32a10.5 10.5 0 1 0 10.5 10.5 10.5 10.5 0 0 0-10.5-10.5zm5.077 14.039a.37.37 0 0 1 .108.263.36.36 0 0 1-.108.263L16.814 17.9a.364.364 0 0 1-.263.108.376.376 0 0 1-.263-.108l-3.538-3.542-3.535 3.549a.356.356 0 0 1-.263.108.376.376 0 0 1-.263-.108l-1.012-1.018a.37.37 0 0 1-.108-.263.36.36 0 0 1 .108-.263l3.549-3.563-3.558-3.514a.377.377 0 0 1 0-.53l1.013-1.017a.373.373 0 0 1 .525 0l3.549 3.5 3.549-3.5a.373.373 0 0 1 .525 0l1.013 1.017a.377.377 0 0 1 0 .53L14.283 12.8l3.544 3.558z" transform="translate(-2.25 -2.32)" />
  </svg>