<svg
   xmlns="http://www.w3.org/2000/svg" width="18.833" height="21" viewBox="0 0 18.833 21">
  <defs>
  <clipPath id="l6e5le8hua">
  <path d="M0 0h18.833v21H0z"/>
  </clipPath>
  </defs>
  <g >
  <path d="M3.121.865c.839.86.811 1.961 1 3.076h12.728a2.132 2.132 0 0 1 1.984 1.993c-.441 2.4-.631 5.021-1.149 7.4a2.7 2.7 0 0 1-2.4 2.162c-3.022.224-6.319-.171-9.37 0a2.139 2.139 0 0 1-1.973-1.709L2.291 2.459a1.348 1.348 0 0 0-1.045-.869c-.2-.026-.416.019-.622-.016A.791.791 0 0 1 .757.011a3.028 3.028 0 0 1 2.364.854m9.225 6.678a1.274 1.274 0 0 0-.38.209L9.735 9.988c-.064 0-.746-.795-.911-.9a.786.786 0 0 0-1.152 1.002c.244.493 1.294 1.2 1.648 1.69a.83.83 0 0 0 1.054-.169 27.732 27.732 0 0 0 2.673-2.678c.555-.672.129-1.563-.7-1.39" />
  <path d="M77.554 280.009a1.321 1.321 0 0 1 .682 2.5 1.321 1.321 0 1 1-.682-2.5" transform="translate(-71.385 -261.654)" />
  <path d="M205.476 280.057a1.322 1.322 0 1 1 .132 2.641 1.322 1.322 0 0 1-.132-2.641" transform="translate(-190.919 -261.701)" />
  </g>
  </svg>