<svg
   xmlns="http://www.w3.org/2000/svg" width="20" height="20" viewBox="0 0 20 20">
  <path d="M16.719 7.891a.811.811 0 0 0-.234-.6L15.3 6.12a.818.818 0 0 0-1.172 0l-5.312 5.3-2.944-2.943a.818.818 0 0 0-1.172 0L3.515 9.648a.811.811 0 0 0-.234.6.8.8 0 0 0 .234.586l4.713 4.713a.8.8 0 0 0 .586.247.816.816 0 0 0 .6-.247l7.071-7.071a.8.8 0 0 0 .234-.586zM20 10a9.783 9.783 0 0 1-1.341 5.019 9.954 9.954 0 0 1-3.639 3.639A9.783 9.783 0 0 1 10 20a9.783 9.783 0 0 1-5.019-1.341 9.954 9.954 0 0 1-3.639-3.639A9.783 9.783 0 0 1 0 10a9.783 9.783 0 0 1 1.341-5.019 9.954 9.954 0 0 1 3.64-3.64A9.783 9.783 0 0 1 10 0a9.783 9.783 0 0 1 5.019 1.341 9.954 9.954 0 0 1 3.639 3.639A9.783 9.783 0 0 1 20 10z" />
  </svg>