<svg
   xmlns="http://www.w3.org/2000/svg" width="25" height="25" viewBox="0 0 25 25">
  <path d="M15.5 3.094a12.5 12.5 0 1 0 12.5 12.5 12.5 12.5 0 0 0-12.5-12.5zm6.044 16.713a.439.439 0 0 1 .128.313.43.43 0 0 1-.128.313l-1.205 1.211a.434.434 0 0 1-.312.128.449.449 0 0 1-.313-.128l-4.214-4.22-4.208 4.224a.426.426 0 0 1-.313.128.449.449 0 0 1-.312-.128l-1.205-1.211a.439.439 0 0 1-.128-.312.43.43 0 0 1 .128-.313l4.224-4.241-4.235-4.185a.448.448 0 0 1 0-.631l1.205-1.211a.445.445 0 0 1 .625 0l4.224 4.169 4.225-4.168a.445.445 0 0 1 .625 0l1.205 1.211a.448.448 0 0 1 0 .631l-4.235 4.185 4.219 4.235z" transform="translate(-3 -3.094)" />
  </svg>