<svg
   xmlns="http://www.w3.org/2000/svg" width="20" height="15.785" viewBox="0 0 20 15.785">
  <path d="m9.955 11.839 1.3-1.3-1.7-1.7-1.3 1.3v.628h1.072v1.076zm4.933-8.072a.231.231 0 0 0-.37.011L10.594 7.7a.254.254 0 1 0 .359.359l3.924-3.924a.231.231 0 0 0 .011-.368zm.9 6.659v2.13a3.234 3.234 0 0 1-3.229 3.229h-9.33a3.11 3.11 0 0 1-2.281-.947A3.11 3.11 0 0 1 0 12.556V3.229A3.11 3.11 0 0 1 .947.947 3.11 3.11 0 0 1 3.229 0h9.327a3.084 3.084 0 0 1 1.312.28.34.34 0 0 1 .2.258.349.349 0 0 1-.1.325l-.549.549a.328.328 0 0 1-.359.09 1.994 1.994 0 0 0-.5-.067H3.229a1.727 1.727 0 0 0-1.267.527 1.727 1.727 0 0 0-.527 1.267v9.327a1.727 1.727 0 0 0 .527 1.267 1.727 1.727 0 0 0 1.267.527h9.327a1.8 1.8 0 0 0 1.794-1.794v-1.413a.335.335 0 0 1 .1-.247l.717-.717a.336.336 0 0 1 .392-.078.325.325 0 0 1 .226.325zm-1.079-8.274 3.229 3.229-7.538 7.534H7.175V9.686zm4.978 1.48-1.032 1.032-3.229-3.229L16.457.4a1.083 1.083 0 0 1 1.525 0l1.7 1.7a1.038 1.038 0 0 1 .318.77 1.038 1.038 0 0 1-.314.762z" />
  </svg>