<svg
   xmlns="http://www.w3.org/2000/svg" width="22" height="22" viewBox="0 0 22 22">
  <g transform="translate(-152.638 -294)">
  <circle cx="11" cy="11" r="11" transform="translate(152.638 294)" />
  <path d="M16 11.306a.776.776 0 0 1-.235.57l-6.072 6.072-1.141 1.141a.81.81 0 0 1-1.141 0l-1.14-1.141-3.036-3.036a.81.81 0 0 1 0-1.141l1.141-1.141a.81.81 0 0 1 1.141 0l2.466 2.474 5.5-5.51a.81.81 0 0 1 1.141 0l1.141 1.141a.776.776 0 0 1 .235.571z" transform="translate(154.138 290.658)"/>
  </g>
  </svg>