<svg xmlns="http://www.w3.org/2000/svg" viewBox="0 0 20 25.455">
  <g fill="currentColor">
    <path d="m10 4.545 1.738 3.334 3.716.46-2.727 2.5.545 3.7L10 12.455l-3.272 2.09.545-3.7L4.546 8.339l3.818-.46z" />
    <path d="M10 25.455 2.331 16.41q-.16-.2-.316-.41A9.9 9.9 0 0 1 0 10 10 10 0 1 1 20 10a9.9 9.9 0 0 1-2.014 6s-.273.358-.314.406zM3.465 14.9s.213.28.261.34l6.274 7.4 6.282-7.409c.04-.05.253-.332.254-.333A8.092 8.092 0 0 0 18.182 10a8.182 8.182 0 1 0-16.364 0 8.1 8.1 0 0 0 1.648 4.9z" />
  </g>
</svg>