<svg xmlns="http://www.w3.org/2000/svg" viewBox="0 0 22.382 21">
  <g fill="currentColor">
    <path d="M14.329 0h3.859c.66 0 1.841.84 1.841 1.539v6.582a11.33 11.33 0 0 0-2.108-.843c-6.329-1.6-12.6 4.264-9.806 10.562.154.349.361.676.514 1.025H1.845A2.055 2.055 0 0 1 0 17.027V1.741A2.081 2.081 0 0 1 1.845 0h3.833a.506.506 0 0 1 .076.076v4.338a2.23 2.23 0 0 0 .379.781 2.318 2.318 0 0 0 1.612.759 37.574 37.574 0 0 0 4.544 0 2.039 2.039 0 0 0 2.041-1.793z" />
    <path d="M21.209 11.382c3.457 4.826-1.3 10.561-6.839 9.487a6.138 6.138 0 0 1-4.573-8.68 6.766 6.766 0 0 1 11.412-.807m-6.709 1.16c-.045-.043-.061-.112-.121-.156a.826.826 0 0 0-1.232 1.079l1.484 1.34a9.781 9.781 0 0 0-1.322 1.3.813.813 0 0 0 .246.937c.88.537 1.608-.7 2.212-1.152.084 0 1.015 1.028 1.224 1.146.725.41 1.541-.149 1.181-.979a9.534 9.534 0 0 0-1.048-1.073c-.076-.069-.194-.033-.212-.181l1.5-1.368a.832.832 0 0 0-1.1-1.153c-.287.125-.716.691-.982.935a5.857 5.857 0 0 1-.6.5c-.121-.05-.175-.215-.251-.282a37.285 37.285 0 0 1-.973-.893" />
    <path d="M7.47 0h5.07a.507.507 0 0 1 .076.076v4.035c0 .155-.25.218-.376.229-1.408.13-3.013-.1-4.442 0a.461.461 0 0 1-.327-.178z" />
  </g>
</svg>