<svg
   xmlns="http://www.w3.org/2000/svg" width="41" height="41" viewBox="0 0 41 41">
  <defs>
  <clipPath id="0ac2ahe8ja">
  <path d="M0 0h25v25H0z"/>
  </clipPath>
  </defs>
  <g >
  <g >
  <circle cx="20.5" cy="20.5" r="20.5" />
  <circle cx="20.5" cy="20.5" r="20" />
  </g>
  <g transform="translate(8 8)">
  <path d="M25 2.345v20.311A2.815 2.815 0 0 1 22.656 25H2.346A2.763 2.763 0 0 1 0 22.487V2.514A2.725 2.725 0 0 1 2.514 0h20.02A2.776 2.776 0 0 1 25 2.345M9.767 1.467h-7.3c-.021 0-.333.129-.382.155a1.253 1.253 0 0 0-.619.943v19.776a1.234 1.234 0 0 0 .621 1.039c.049.026.361.155.382.155h7.3zm13.768 10.3v-9.3a1.759 1.759 0 0 0-.364-.661 1.841 1.841 0 0 0-.637-.34h-11.3v22.069h11.3a1.759 1.759 0 0 0 .661-.364 1.841 1.841 0 0 0 .34-.637v-9.3h-8.2c.3.427.874.79 1.172 1.2a.743.743 0 0 1-1.075 1.026 24.431 24.431 0 0 1-2.417-2.417.761.761 0 0 1 0-1.076 24.431 24.431 0 0 1 2.417-2.417.743.743 0 0 1 1.068 1.022c-.3.406-.87.769-1.172 1.2z" />
  <path d="m45.517 45 4.185-.008a.74.74 0 0 1 0 1.459h-4.144A.741.741 0 0 1 45.517 45" transform="translate(-42.013 -42.054)" />
  <path d="M45.517 89.908 49.7 89.9a.74.74 0 0 1 0 1.459h-4.142a.741.741 0 0 1-.041-1.451" transform="translate(-42.013 -84.036)" />
  <path d="m45.517 134.82 4.185-.008a.74.74 0 0 1 0 1.459h-4.144a.741.741 0 0 1-.041-1.451" transform="translate(-42.013 -126.019)" />
  </g>
  </g>
  </svg>