<svg
   xmlns="http://www.w3.org/2000/svg" width="19" height="19.002" viewBox="0 0 19 19.002">
  <defs>
  <clipPath id="h1ffkcfmsa">
  <path d="M0 0h19v19.002H0z"/>
  </clipPath>
  </defs>
  <g >
  <path d="M0 137.066a6.406 6.406 0 1 1 6.389 6.408A6.407 6.407 0 0 1 0 137.066m7.063-1.544v-1.036a.783.783 0 0 0-.043-.3.663.663 0 0 0-1.28.27c-.006.863 0 1.726 0 2.589a.724.724 0 0 0 .232.535c.3.295.6.595.894.893.317.317.629.641.954.95a.654.654 0 0 0 1.1-.292.686.686 0 0 0-.217-.693c-.5-.5-1-1.008-1.511-1.506a.406.406 0 0 1-.133-.327c.008-.359 0-.718 0-1.077" transform="translate(0 -124.475)" />
  <path d="M81.75 18.965A7.733 7.733 0 0 0 78.825 5a7.546 7.546 0 0 0-4.132.35c-.17.063-.2.036-.2-.141.007-.918 0-1.836 0-2.755a2.41 2.41 0 0 1 2.42-2.447C78.991 0 81.069.006 83.147 0c.171 0 .185.068.185.207q-.005 2.8 0 5.592c0 .586.245.833.829.833h5.572c.174 0 .234.032.234.223-.007 3.217 0 6.435-.006 9.652A2.41 2.41 0 0 1 87.464 19q-2.755.005-5.509 0a.308.308 0 0 1-.2-.035" transform="translate(-70.963)" />
  <path d="M293.862 15.07c-.025.016-.088 0-.148 0-1.483 0-2.966 0-4.449.005-.18 0-.233-.043-.232-.228.008-1.483 0-2.966 0-4.449v-.148l4.824 4.823" transform="translate(-275.346 -9.762)" />
  </g>
  </svg>