<svg
   xmlns="http://www.w3.org/2000/svg" width="20" height="20.001" viewBox="0 0 20 20.001">
  <path d="M12.332 2.329a.805.805 0 0 0-.573.233l-9.2 9.2a.822.822 0 0 0 0 1.146l9.2 9.192a.821.821 0 0 0 1.146 0l9.2-9.2a.822.822 0 0 0 0-1.146l-9.2-9.192a.81.81 0 0 0-.573-.233zm0 1.363 8.639 8.639-8.639 8.639-8.639-8.639 8.639-8.639zm-.2 4.244-.091.017-.074.05-.052.076-.017.091v3.1L9.7 9.08l-.078-.05-.087-.018-.09.017-.075.051-.288.288-.053.077-.016.089.017.088.05.077 2.191 2.191h-3.1l-.09.02-.074.05-.052.076-.017.091v.407l.018.092.051.074.075.05.091.02h3.1l-2.191 2.189-.053.077-.016.089.018.088.05.077.288.288.079.051.088.018.089-.017.078-.052 2.192-2.192v3.1l.018.092.051.074.075.05.091.02h.407l.092-.019.074-.05.051-.074.018-.092v-3.1l2.191 2.19.079.051.088.017.089-.017.078-.052.288-.288.052-.076s.018-.09.017-.091l-.018-.088-.052-.078L13.4 12.77h3.09l.092-.019.074-.05.051-.074.018-.092v-.407l-.018-.091-.052-.076-.075-.05-.092-.019h-3.1L15.582 9.7l.052-.076.018-.09-.017-.088-.052-.077-.288-.288-.076-.051-.088-.017-.09.017-.076.051-2.195 2.187v-3.1l-.018-.091L12.7 8l-.075-.05-.092-.018h-.407zM9.537 9.012z" transform="translate(-2.332 -2.329)" />
  </svg>