<svg
   xmlns="http://www.w3.org/2000/svg" width="20" height="17.778" viewBox="0 0 20 17.778">
  <path d="M24 47.556V42a2.222 2.222 0 0 1 2.222-2.222v-3.334A4.444 4.444 0 0 1 30.667 32h6.667a4.444 4.444 0 0 1 4.444 4.444v3.333A2.222 2.222 0 0 1 44 42v5.556a2.222 2.222 0 0 1-4.444 0H28.444a2.222 2.222 0 0 1-4.444 0zm6.667-13.333a2.222 2.222 0 0 0-2.222 2.222v3.333h11.111v-3.334a2.222 2.222 0 0 0-2.222-2.222zm-3.333 10a1.111 1.111 0 1 0-1.111-1.111 1.111 1.111 0 0 0 1.11 1.11zm13.333 0a1.111 1.111 0 1 0-1.111-1.111 1.111 1.111 0 0 0 1.111 1.11z" transform="translate(-24 -32)"/>
  </svg>