<svg
   xmlns="http://www.w3.org/2000/svg" width="20" height="21.197" viewBox="0 0 20 21.197">
  <path d="M4.927 10.71A1.731 1.731 0 0 0 6.76 8.878L6.755 8.3s-.273-1.639 1.914-1.639l8.853.061V9.06a1.1 1.1 0 0 0 1.555 0L22.5 5.641a1.1 1.1 0 0 0 0-1.555L19.078.464a1.1 1.1 0 0 0-1.555 0v2.452c-.214-.062-8.577-.1-8.577-.1-4.932 0-6.012 3.229-6.012 4.528v1.37a1.994 1.994 0 0 0 1.993 1.996z" transform="translate(-2.819 -.143)" />
  <path d="M20.7 22.707a1.9 1.9 0 0 0-2 1.877v1.272c-.06.475-.857.784-2.027.784H7.987v-2.072a1.1 1.1 0 0 0-1.555 0l-3.421 3.418a1.1 1.1 0 0 0 0 1.555l3.418 3.419a1.1 1.1 0 0 0 1.555 0V30.5h8.691c4.932 0 6.012-3.246 6.012-4.547v-1.37a1.9 1.9 0 0 0-1.987-1.876z" transform="translate(-2.69 -12.085)" />
  </svg>