<svg
   xmlns="http://www.w3.org/2000/svg" width="18" height="17.25" viewBox="0 0 18 17.25">
  <g >
  <g >
  <path d="M0 2.25A2.25 2.25 0 0 1 2.25 0h13.5A2.25 2.25 0 0 1 18 2.25v9a2.25 2.25 0 0 1-2.25 2.25h-2.812a1.125 1.125 0 0 0-.9.45L9.9 16.8a1.125 1.125 0 0 1-1.8 0l-2.137-2.85a1.125 1.125 0 0 0-.9-.45H2.25A2.25 2.25 0 0 1 0 11.25zm5.625 4.5A1.125 1.125 0 1 0 4.5 7.875 1.125 1.125 0 0 0 5.625 6.75zm4.5 0A1.125 1.125 0 1 0 9 7.875a1.125 1.125 0 0 0 1.125-1.125zM13.5 7.875a1.125 1.125 0 1 0-1.125-1.125A1.125 1.125 0 0 0 13.5 7.875z" />
  </g>
  </g>
  </svg>