<svg
   xmlns="http://www.w3.org/2000/svg" width="20" height="20" viewBox="0 0 20 20">
  <g >
  <path d="M7.5 1.25V5H1.25V1.25zM1.25 0A1.25 1.25 0 0 0 0 1.25V5a1.25 1.25 0 0 0 1.25 1.25H7.5A1.25 1.25 0 0 0 8.75 5V1.25A1.25 1.25 0 0 0 7.5 0zm17.5 15v3.75H12.5V15zm-6.25-1.25A1.25 1.25 0 0 0 11.25 15v3.75A1.25 1.25 0 0 0 12.5 20h6.25A1.25 1.25 0 0 0 20 18.75V15a1.25 1.25 0 0 0-1.25-1.25zM7.5 10v8.75H1.25V10zM1.25 8.75A1.25 1.25 0 0 0 0 10v8.75A1.25 1.25 0 0 0 1.25 20H7.5a1.25 1.25 0 0 0 1.25-1.25V10A1.25 1.25 0 0 0 7.5 8.75zm17.5-7.5V10H12.5V1.25zM12.5 0a1.25 1.25 0 0 0-1.25 1.25V10a1.25 1.25 0 0 0 1.25 1.25h6.25A1.25 1.25 0 0 0 20 10V1.25A1.25 1.25 0 0 0 18.75 0z" />
  </g>
  </svg>