<svg
   xmlns="http://www.w3.org/2000/svg" width="15" height="14.994" viewBox="0 0 15 14.994">
  <defs>
  <clipPath id="wxvrruig3a">
  <path d="M0 0h15v14.994H0z"/>
  </clipPath>
  </defs>
  <g >
  <path d="M73.146.01a4.395 4.395 0 0 1 2.7 7.572l-3 2.736-2.952-2.707A4.4 4.4 0 0 1 72.56.01a4.841 4.841 0 0 1 .586 0m-.357 2.5a1.876 1.876 0 1 0 .283 3.741 1.876 1.876 0 0 0-.283-3.741" transform="translate(-65.36 -.001)" />
  <path d="M14.991 248.87a1.633 1.633 0 0 1-1.311 1.34 1.607 1.607 0 0 1-1.7-.93H9.27a1.888 1.888 0 0 1-3.554 0H3a1.567 1.567 0 1 1 0-1.228h2.716a1.888 1.888 0 0 1 3.554 0h2.714a1.588 1.588 0 0 1 2.158-.778 1.676 1.676 0 0 1 .849 1.187 2.431 2.431 0 0 1 0 .41m-7.652-.813a.629.629 0 0 0 .052 1.223.629.629 0 1 0-.052-1.223" transform="translate(0 -235.534)" />
  </g>
  </svg>