<svg
   xmlns="http://www.w3.org/2000/svg" width="21.5" height="21.702" viewBox="0 0 21.5 21.702">
  <path d="M18.205 39a2.574 2.574 0 0 1-2.5 2.857H9.813A2.574 2.574 0 0 1 7.313 39" transform="translate(-4.509 -20.905)" />
  <path d="M16.571 31.5A1.638 1.638 0 0 1 18 33.286h0a1.638 1.638 0 0 1-1.429 1.786H4.429A1.638 1.638 0 0 1 3 33.286h0A1.638 1.638 0 0 1 4.429 31.5" transform="translate(-2.25 -16.977)" />
  <path d="M16.929 29.143H9.576a.357.357 0 0 0-.252.1l-1.2 1.2a.179.179 0 0 1-.253 0l-1.2-1.2a.357.357 0 0 0-.252-.1H4.071A1.071 1.071 0 0 1 3 28.071h0A1.071 1.071 0 0 1 4.071 27h12.858A1.071 1.071 0 0 1 18 28.071h0a1.071 1.071 0 0 1-1.071 1.072z" transform="translate(-2.25 -14.619)" />
  <path d="M6 21.75v-.01C6 19.285 8.009 18 10.464 18h3.214c2.455 0 4.464 1.295 4.464 3.75v-.01" transform="translate(-3.821 -9.905)" />
  <path d="m22.594 10.5.332 2.856" transform="translate(-12.513 -5.977)" />
  <path d="M24 26.929h6.219a1.429 1.429 0 0 0 1.425-1.322l1.6-15.107" transform="translate(-13.25 -5.977)" />
  <path d="m34.5 6.571.714-2.857L37.313 3" transform="translate(-18.75 -2.048)" />
  <path d="M21 10.5h11.429" transform="translate(-11.679 -5.977)" />
  </svg>