<svg
   xmlns="http://www.w3.org/2000/svg" width="20.988" height="21" viewBox="0 0 20.988 21">
  <defs>
  <clipPath id="k298jki9ba">
  <path d="M0 0h20.988v21H0z"/>
  </clipPath>
  </defs>
  <g >
  <path d="M58.022.01a1.855 1.855 0 0 1-.142 3.69c-.141 0-.4-.06-.484-.036a4.373 4.373 0 0 0-.461.444L54.394 6.9a1.969 1.969 0 0 1 .288 1.559 1.848 1.848 0 0 1-3.632-.473c0-.143.116-.472.066-.552l-2.1-1.552c-.083-.013-.336.148-.454.187a1.8 1.8 0 0 1-1.2-.01c-.176-.059-.347-.242-.508-.136L44.841 7.43c-.008.255.077.442.057.712a1.844 1.844 0 1 1-1.226-1.879c.176.059.347.242.508.136l2.02-1.512c.05-.08-.064-.409-.066-.552a1.848 1.848 0 0 1 3.7 0c0 .143-.116.472-.066.552L51.777 6.4c.161.106.331-.077.508-.136a2.331 2.331 0 0 1 .392-.1c.183-.02.55.057.642.03a4.374 4.374 0 0 0 .461-.444l2.54-2.789a4.431 4.431 0 0 0-.244-.493A1.88 1.88 0 0 1 57.612.01a2.332 2.332 0 0 1 .41 0" transform="translate(-39.944 -.001)" />
  <path d="M0 643.013v-.328a.689.689 0 0 1 .592-.453H20.4a.618.618 0 0 1 0 1.234H.592a.689.689 0 0 1-.592-.453" transform="translate(0 -622.466)" />
  <path d="M524.486 250.342H520.8v-10.679a2 2 0 0 1 .183-.308.818.818 0 0 1 .409-.165c.812-.08 1.756.062 2.582 0a1.035 1.035 0 0 1 .331.16 2 2 0 0 1 .183.308z" transform="translate(-504.768 -231.804)" />
  <path d="M204.815 327.8h-3.689v-8.219a2 2 0 0 1 .183-.308.817.817 0 0 1 .409-.165c.812-.08 1.756.062 2.582 0a1.035 1.035 0 0 1 .331.16 2 2 0 0 1 .183.308z" transform="translate(-194.936 -309.262)" />
  <path d="M364.65 405.259h-3.689V399.5a2 2 0 0 1 .183-.308.817.817 0 0 1 .409-.165c.812-.08 1.756.062 2.582 0a1.037 1.037 0 0 1 .331.16 2 2 0 0 1 .183.308z" transform="translate(-349.852 -386.72)" />
  <path d="M44.979 443.988H41.29v-4.53a2 2 0 0 1 .183-.309.818.818 0 0 1 .409-.165c.812-.08 1.756.062 2.582 0a1.035 1.035 0 0 1 .331.16 2 2 0 0 1 .183.309z" transform="translate(-40.019 -425.45)" />
  </g>
  </svg>