<svg xmlns="http://www.w3.org/2000/svg" viewBox="0 0 20 20.541">
  <g fill="currentColor">
    <path d="M18.089 10.83v-1.126l1.413-1.236a1.471 1.471 0 0 0 .28-1.876l-1.736-2.943a1.485 1.485 0 0 0-1.744-.662l-1.788.6a8.351 8.351 0 0 0-.964-.552l-.375-1.854A1.471 1.471 0 0 0 11.704 0H8.26a1.471 1.471 0 0 0-1.471 1.184l-.375 1.854a8.446 8.446 0 0 0-.971.552l-1.751-.625a1.62 1.62 0 0 0-1.744.692L.212 6.595a1.471 1.471 0 0 0 .3 1.847l1.39 1.273v1.126l-1.39 1.236a1.471 1.471 0 0 0-.3 1.876l1.736 2.943a1.485 1.485 0 0 0 1.744.662l1.788-.6a8.35 8.35 0 0 0 .964.552l.375 1.854a1.471 1.471 0 0 0 1.471 1.184h3.473a1.471 1.471 0 0 0 1.471-1.184l.375-1.854a8.446 8.446 0 0 0 .971-.552l1.78.6a1.485 1.485 0 0 0 1.744-.662l1.677-2.943a1.471 1.471 0 0 0-.3-1.847zm-1.317 5.326-2.523-.853a6.518 6.518 0 0 1-1.994 1.159l-.522 2.641H8.26l-.522-2.612a6.886 6.886 0 0 1-1.986-1.155l-2.531.824-1.736-2.943 2-1.766a6.548 6.548 0 0 1 0-2.3l-2-1.817 1.739-2.949 2.523.853a6.518 6.518 0 0 1 1.994-1.155l.522-2.641h3.473l.522 2.612a6.886 6.886 0 0 1 1.986 1.155l2.531-.824 1.736 2.943-2 1.766a6.548 6.548 0 0 1 0 2.3l2 1.817z" />
    <path d="M9.996 14.684a4.414 4.414 0 1 1 4.414-4.414 4.37 4.37 0 0 1-4.414 4.414zm0-7.357a2.877 2.877 0 1 0 2.1.842 2.877 2.877 0 0 0-2.1-.842z" />
  </g>
</svg>