<svg
   xmlns="http://www.w3.org/2000/svg" width="20.999" height="21" viewBox="0 0 20.999 21">
  <g >
  <g >
  <path d="M24.676 1.337q-.337-.025-.676-.025V0q.387 0 .773.029l-.1 1.308zm2.63.591a9.19 9.19 0 0 0-1.293-.392L26.3.255A10.365 10.365 0 0 1 27.778.7l-.472 1.224zm1.8.932q-.281-.188-.576-.354l.647-1.142a10.531 10.531 0 0 1 1.285.858l-.807 1.035q-.267-.208-.549-.4zm2.404 2.349a9.173 9.173 0 0 0-.857-1.045l.95-.905a10.95 10.95 0 0 1 .98 1.194zm.976 1.774q-.129-.312-.281-.614l1.172-.591a10.467 10.467 0 0 1 .591 1.428l-1.247.411q-.106-.321-.235-.634zm.7 3.29a9.174 9.174 0 0 0-.131-1.345l1.289-.228a10.565 10.565 0 0 1 .156 1.54l-1.312.033zm-.172 2.018c.043-.223.079-.445.106-.669l1.3.161a10.442 10.442 0 0 1-.3 1.516l-1.265-.35q.091-.325.157-.657zm-1.249 3.122a9.27 9.27 0 0 0 .638-1.192l1.2.531a10.592 10.592 0 0 1-.728 1.362l-1.109-.7zM30.5 16.994q.24-.24.459-.5l.995.857q-.253.293-.526.567z" transform="translate(-13.496)" />
  <path d="M10.492 1.312a9.186 9.186 0 1 0 6.5 15.682l.928.928A10.5 10.5 0 1 1 10.492 0z" transform="translate(.012)" />
  </g>
  <path d="M15.514 21.468a6.962 6.962 0 0 1-4.939-2.045l4.939-4.939V7.5a6.984 6.984 0 0 1 0 13.968z" transform="translate(-4.724 -3.984)" />
  </g>
  </svg>