<svg
   xmlns="http://www.w3.org/2000/svg" width="21.011" height="21" viewBox="0 0 21.011 21">
  <defs>
  <clipPath id="ihxig4qc2a">
  <path d="M0 0h21.011v21H0z"/>
  </clipPath>
  </defs>
  <g >
  <path d="M15.389 5.392c.06.394.2.769.268 1.162a8.011 8.011 0 0 1-1.662 6.314l1.518 1.519c.189-.1.3-.283.5-.38a1.151 1.151 0 0 1 1.319.2c.991 1.14 2.383 2.175 3.33 3.326a1.14 1.14 0 0 1 .259 1.244 11.5 11.5 0 0 1-2.061 2.11 1.129 1.129 0 0 1-1.244-.168c-.986-1.174-2.522-2.262-3.445-3.445a1.155 1.155 0 0 1 .232-1.733l-1.569-1.568A7.869 7.869 0 1 1 14.256 3.26l-1.322 1.333a6.006 6.006 0 1 0-7.164 8.9 6.027 6.027 0 0 0 8.122-5.259c.027-.467-.07-.923-.025-1.384.47-.392.909-1.02 1.381-1.384.047-.036.059-.091.141-.07" transform="translate(0 -.001)" />
  <path d="m120.124 22.464-5.79 5.766c-.043.1.15.493.165.678a1.508 1.508 0 1 1-2.928-.354l-1.312-1.02a1.726 1.726 0 0 1-1.616.294l-1.733 2.206a.377.377 0 1 1-.556-.509l1.717-2.211a1.5 1.5 0 1 1 2.592-.406l1.291.984a1.713 1.713 0 0 1 1.811-.186l5.8-5.806h-2.179c-.253 0-.419-.644.01-.74l3.131-.011c.256.03.331.162.353.4.088.976-.062 2.095-.012 3.085-.1.429-.74.263-.74.01z" transform="translate(-102.485 -20.401)" />
  </g>
  </svg>