<svg
   xmlns="http://www.w3.org/2000/svg" width="35.357" height="30" viewBox="0 0 35.357 30">
  <defs>
  <clipPath id="i838jixqia">
  <path d="M0 0h35.357v30H0z"/>
  </clipPath>
  </defs>
  <g >
  <path d="M73.929 132.33a3.137 3.137 0 0 1 0 .517 2.141 2.141 0 0 1-1.879 1.826c-.865.067-.891-.876-.328-1.017a4.435 4.435 0 0 0 .5-.084 1.043 1.043 0 0 0-.552-2c-1.371.107-1.572 1.209-2.23 2.113a4.969 4.969 0 0 1-2.082 1.711v.072c.356.592.758 1.954 1.425 2.231.3.122.659 0 .865.273a.522.522 0 0 1-.39.841h-7.342a.524.524 0 0 1-.029-1.024c.325-.066.467.016.779-.22.525-.4.875-1.518 1.2-2.1a7.07 7.07 0 0 1-3.207-1.982c-.775-.791-1.685-2.347-2.912-2.224-.43.043-.954.554-1.328.156-.355-.378.07-.861.328-1.156 1.977-2.267 4.043-.459 6.209.273h9.03a2.143 2.143 0 0 1 1.946 1.794" transform="translate(-52.162 -119.705)" />
  <path d="M145.051 81.558a1.432 1.432 0 0 1-.261-.124 2.951 2.951 0 0 1 1.554-1.635 1.549 1.549 0 1 1 2.62 0 2.961 2.961 0 0 1 1.586 1.759z" transform="translate(-134.195 -71.76)" />
  <path d="M23.293 13.465a.953.953 0 0 1-.176-.529c-.226-2.472.28-5.412 0-7.85a2.5 2.5 0 0 0-2.249-2.122H5.3a2.48 2.48 0 0 0-2.33 2.19v15.71a2.491 2.491 0 0 0 2.122 2.249l9.09.024c.335.075.651.872.88 1.194.411.575 1.535 1.415.176 1.757C11.9 25.9 8.3 26.332 5 26.087a5.461 5.461 0 0 1-5-4.931V5a5.464 5.464 0 0 1 4.931-5h16.155a5.454 5.454 0 0 1 5 4.927l-.036 8.713c-.338.723-.976.214-1.508.092-.359-.082-1.047-.045-1.251-.268" />
  <path d="M217.187 205.236c.1.063.7 1.962.827 2.263a7.766 7.766 0 0 0 3.446 3.866 30.808 30.808 0 0 0 3.01 1.17.219.219 0 0 1 0 .331 14.719 14.719 0 0 0-3.991 1.8c-2.042 1.553-2.293 3.036-3.19 5.251-.071.174-.115.377-.364.229-.108-.064-.753-2.023-.888-2.338a7.622 7.622 0 0 0-4.151-4.129c-.742-.314-1.546-.509-2.277-.841a.21.21 0 0 1 .1-.342c2.06-.647 3.9-1.365 5.282-3.105a14.13 14.13 0 0 0 1.888-4.08c.039-.093.238-.121.31-.076" transform="translate(-194.222 -190.198)" />
  <path d="M383.093 142.872c.068.044.446 1.271.566 1.5.755 1.475 1.712 1.571 3.039 2.178.187.085.155.156-.023.242-.283.137-.7.217-1 .347a3.942 3.942 0 0 0-2.178 2.177c-.09.209-.3.973-.378 1.073a.137.137 0 0 1-.16.055c-.071-.015-.43-1.179-.519-1.364a4.181 4.181 0 0 0-1.821-1.835c-.3-.147-1.181-.361-1.364-.507a.122.122 0 0 1-.034-.139c.019-.06 1.017-.359 1.183-.431a3.868 3.868 0 0 0 2.192-2.324c.06-.143.3-.95.34-.978a.38.38 0 0 1 .153 0" transform="translate(-351.467 -132.41)" />
  <path d="M372.642 37.247c.046.03.307.874.389 1.035.519 1.014 1.177 1.08 2.09 1.5.128.059.106.108-.016.167-.195.095-.479.149-.686.238a2.711 2.711 0 0 0-1.5 1.5c-.062.144-.2.669-.26.738a.094.094 0 0 1-.11.038c-.049-.01-.3-.811-.357-.938a2.875 2.875 0 0 0-1.252-1.262c-.209-.1-.812-.248-.938-.349a.084.084 0 0 1-.023-.1c.013-.041.7-.247.813-.3a2.66 2.66 0 0 0 1.507-1.6c.041-.1.2-.653.234-.672a.261.261 0 0 1 .105 0" transform="translate(-342.902 -34.516)" />
  </g>
  </svg>