<svg
   xmlns="http://www.w3.org/2000/svg" width="20" height="20" viewBox="0 0 20 20">
  <path d="M26.418 23.969a5.43 5.43 0 0 0 .2 1.8c-2.072 2.433-7.543 8.861-8.053 9.351a.97.97 0 0 0-.322.721 1.6 1.6 0 0 0 .462 1.024c.317.332 1.673 1.587 1.923 1.346.74-.721.889-.913 1.192-1.212.457-.447-.048-1.361.111-1.731a.7.7 0 0 1 .6-.5 8.985 8.985 0 0 1 1.139.144 1.2 1.2 0 0 0 .913-.442 1.012 1.012 0 0 0 .418-.75c.01-.433-.615-1-.149-1.462s1.139.3 1.635.24a1.815 1.815 0 0 0 1.159-1.038c.063-.293-.562-1.048-.466-1.476a1 1 0 0 1 .548-.529c.221-.048 1.2.332 1.423.284a3.38 3.38 0 0 0 .837-.5 5.415 5.415 0 0 0 2.293.452 5.73 5.73 0 1 0 0-11.45 5.761 5.761 0 0 0-5.863 5.728zm8.745-1.114a1.538 1.538 0 1 1-1.538-1.538 1.538 1.538 0 0 1 1.538 1.538z" transform="translate(-18.24 -18.24)" />
  </svg>