<svg
   xmlns="http://www.w3.org/2000/svg" width="20" height="25.455" viewBox="0 0 20 25.455">
  <path d="m20.455 10.5 1.738 3.334 3.716.46-2.727 2.5.545 3.7-3.273-2.084-3.272 2.09.545-3.7L15 14.294l3.818-.46z" transform="translate(-10.455 -5.955)" />
  <path d="M17.5 28.455 9.831 19.41q-.16-.2-.316-.41A9.9 9.9 0 0 1 7.5 13a10 10 0 1 1 20 0 9.9 9.9 0 0 1-2.014 6s-.273.358-.314.406zM10.965 17.9s.213.28.261.34l6.274 7.4 6.282-7.409c.04-.05.253-.332.254-.333A8.092 8.092 0 0 0 25.682 13a8.182 8.182 0 1 0-16.364 0 8.1 8.1 0 0 0 1.648 4.9z" transform="translate(-7.5 -3)" />
  </svg>