<svg
   xmlns="http://www.w3.org/2000/svg" width="20" height="15.916" viewBox="0 0 20 15.916">
  <g >
  <path d="M24.011 39.815a1.111 1.111 0 0 1 1.111-1.115h17.767A1.111 1.111 0 0 1 44 39.815V52.4a2.222 2.222 0 0 1-2.222 2.222H26.222A2.222 2.222 0 0 1 24 52.4V40.175a1.025 1.025 0 0 1 .011-.156zm2.211 2.471V52.4h15.556V42.286l-5.421 5.421a3.333 3.333 0 0 1-4.713 0l-5.421-5.423zm1.747-1.4h12.062l-5.244 5.244a1.111 1.111 0 0 1-1.572 0l-5.245-5.239z" transform="translate(-24 -38.704)" />
  </g>
  </svg>