<svg
   xmlns="http://www.w3.org/2000/svg" width="20" height="20" viewBox="0 0 20 20">
  <g >
  <path d="M23.191 21.181a.625.625 0 0 1 0 .885l-3.75 3.75a.625.625 0 0 1-.885 0l-1.875-1.875a.626.626 0 1 1 .885-.885L19 24.49l3.307-3.309a.625.625 0 0 1 .885 0z" transform="translate(-9.624 -12.248)" />
  <path d="M4.375 0A.625.625 0 0 1 5 .625v.625h10V.625a.625.625 0 0 1 1.25 0v.625h1.25a2.5 2.5 0 0 1 2.5 2.5V17.5a2.5 2.5 0 0 1-2.5 2.5h-15A2.5 2.5 0 0 1 0 17.5V3.75a2.5 2.5 0 0 1 2.5-2.5h1.25V.625A.625.625 0 0 1 4.375 0zM1.25 5v12.5a1.25 1.25 0 0 0 1.25 1.25h15a1.25 1.25 0 0 0 1.25-1.25V5z" />
  </g>
  </svg>