<svg
   xmlns="http://www.w3.org/2000/svg" width="20" height="20" viewBox="0 0 20 20">
  <g >
  <path d="M22 73.25A1.25 1.25 0 0 1 23.25 72h6.25v2.5h-6.25A1.25 1.25 0 0 1 22 73.25zm-10 2.5h5a1.25 1.25 0 0 1 0 2.5h-5z" transform="translate(-10.75 -64.5)" />
  <path d="M4.375 0A.625.625 0 0 1 5 .625v.625h10V.625a.625.625 0 0 1 1.25 0v.625h1.25a2.5 2.5 0 0 1 2.5 2.5V17.5a2.5 2.5 0 0 1-2.5 2.5h-15A2.5 2.5 0 0 1 0 17.5V3.75a2.5 2.5 0 0 1 2.5-2.5h1.25V.625A.625.625 0 0 1 4.375 0zM1.25 5v12.5a1.25 1.25 0 0 0 1.25 1.25h15a1.25 1.25 0 0 0 1.25-1.25V5z" />
  </g>
  </svg>