<svg xmlns="http://www.w3.org/2000/svg" viewBox="0 0 20 20">
  <g fill="currentColor">
    <path d="M11.25 8.75A1.25 1.25 0 0 1 12.5 7.5h6.25V10h-6.25a1.25 1.25 0 0 1-1.25-1.25zm-10 2.5h5a1.25 1.25 0 0 1 0 2.5h-5z" />
    <path d="M4.375 0A.625.625 0 0 1 5 .625v.625h10V.625a.625.625 0 0 1 1.25 0v.625h1.25a2.5 2.5 0 0 1 2.5 2.5V17.5a2.5 2.5 0 0 1-2.5 2.5h-15A2.5 2.5 0 0 1 0 17.5V3.75a2.5 2.5 0 0 1 2.5-2.5h1.25V.625A.625.625 0 0 1 4.375 0zM1.25 5v12.5a1.25 1.25 0 0 0 1.25 1.25h15a1.25 1.25 0 0 0 1.25-1.25V5z" />
  </g>
</svg>