<svg
   xmlns="http://www.w3.org/2000/svg" width="35" height="35" viewBox="0 0 35 35">
  <defs>
  <clipPath id="cip279f1la">
  <path d="M0 0h22.683v22.672H0z"/>
  </clipPath>
  </defs>
  <circle cx="17.5" cy="17.5" r="17.5" />
  <g >
  <g transform="translate(6.158 6.164)">
  <path d="M3.559 43.748a1.667 1.667 0 0 1 1.241.362c.892 1.037 2.2 1.983 3.036 3.028a1.644 1.644 0 0 1 .4 1.283c-.111 1-1.638 1.889-2.215 2.632-.263.338-.091.547.078.9a16.57 16.57 0 0 0 6.109 6.147c.274.134.663.39.919.2 1.112-.809 2.279-3.268 3.96-1.913 1.067.861 2.041 2.191 3.095 3.1.95 1.384-.168 2.107-1.021 2.979-1.377 1.407-1.76 1.988-3.956 1.718-4.371-.538-9.466-4.877-12-8.322-1.462-1.988-3.937-6.429-3-8.9a12.142 12.142 0 0 1 2.432-2.741 1.9 1.9 0 0 1 .921-.477" transform="translate(0 -41.584)" />
  <path d="M233.852.02a10.164 10.164 0 0 1 3.8.928c3.362 1.517 6.329 5.247 6.554 9.013a1.079 1.079 0 0 1-2.113.436c-.068-.29-.072-.634-.137-.935a9.176 9.176 0 0 0-7.294-7.2c-.524-.109-1.051-.015-1.432-.479a1.091 1.091 0 0 1 .622-1.763" transform="translate(-221.531 -.001)" />
  <path d="M233.676 82.61a3.254 3.254 0 0 1 1.224.2 7.388 7.388 0 0 1 4.3 3.488c.465.844 1.536 3.3-.124 3.48-1.2.13-1.164-.956-1.456-1.76a5.163 5.163 0 0 0-2.925-2.995c-.729-.284-1.787-.225-1.884-1.24a1.106 1.106 0 0 1 .868-1.172" transform="translate(-221.355 -78.535)" />
  </g>
  </g>
  </svg>