<svg
   xmlns="http://www.w3.org/2000/svg" width="20" height="20" viewBox="0 0 20 20">
  <path d="M4.567 1.659A.847.847 0 0 0 3.3 1.581L2.005 2.874a2.145 2.145 0 0 0-.562 2.212 21.959 21.959 0 0 0 5.21 8.26 21.961 21.961 0 0 0 8.26 5.21 2.145 2.145 0 0 0 2.212-.562l1.292-1.294a.847.847 0 0 0-.079-1.269l-2.883-2.241a.847.847 0 0 0-.725-.152l-2.737.684a2.181 2.181 0 0 1-2.071-.574l-3.07-3.071a2.181 2.181 0 0 1-.575-2.071l.685-2.737a.847.847 0 0 0-.152-.725zM2.354.638a2.181 2.181 0 0 1 3.265.2l2.242 2.886a2.18 2.18 0 0 1 .394 1.867l-.684 2.738a.847.847 0 0 0 .222.8l3.072 3.071a.847.847 0 0 0 .8.222l2.736-.684a2.181 2.181 0 0 1 1.867.394l2.882 2.242a2.181 2.181 0 0 1 .2 3.264l-1.292 1.292a3.471 3.471 0 0 1-3.6.877 23.292 23.292 0 0 1-8.762-5.525A23.292 23.292 0 0 1 .184 5.527a3.475 3.475 0 0 1 .879-3.6L2.355.638z" transform="translate(.001 .001)" />
  </svg>