<svg xmlns="http://www.w3.org/2000/svg" viewBox="0 0 22.54 21">
  <g fill="currentColor">
    <path d="M12.368 21A10.606 10.606 0 0 1 2 13.552c-.064-.211-.156-.259-.357-.232-.465.063-.933.109-1.4.163-.079.009-.166.045-.222-.041s.012-.151.062-.214q1.172-1.491 2.341-2.983c.11-.141.194-.153.335-.04.994.794 1.993 1.581 2.991 2.371.062.049.154.093.132.186s-.131.1-.22.114c-.507.055-1.014.117-1.522.162-.2.018-.254.07-.178.276a8.557 8.557 0 0 0 16.4-.856 8.584 8.584 0 0 0-6.82-10.384c-.368-.065-.738-.1-1.109-.132a.388.388 0 0 1-.407-.441v-1c0-.383.154-.526.541-.5a10.305 10.305 0 0 1 5.871 2.184A10.31 10.31 0 0 1 22.47 9.38a10.535 10.535 0 0 1-8.462 11.432 10.874 10.874 0 0 1-1.64.188" />
    <path d="M9.603 14.934 6.509 13.241c-.272-.149-.294-.227-.147-.5.073-.135.146-.271.222-.4.13-.23.221-.259.449-.138.2.107.4.211.6.329.112.068.165.041.225-.067.123-.219.272-.423.391-.644a2.3 2.3 0 0 1 1.406-1.119 11.093 11.093 0 0 1 1.727-.4c.183-.028.2-.084.131-.246a9.72 9.72 0 0 1-.647-1.932 2.123 2.123 0 0 1 .191-1.415c.131-.261.248-.528.384-.786.061-.115.04-.168-.071-.224-.21-.105-.412-.226-.62-.336a.257.257 0 0 1-.122-.4c.091-.163.183-.325.268-.491.1-.2.244-.231.438-.122.4.223.8.437 1.193.655l5.01 2.744c.288.158.309.231.154.516l-.2.362c-.155.28-.229.3-.52.143-.178-.1-.36-.188-.532-.294-.119-.073-.174-.047-.244.069-.191.32-.4.631-.6.944a1.859 1.859 0 0 1-.91.7 8.915 8.915 0 0 1-2 .509c-.2.032-.212.086-.137.259a9.812 9.812 0 0 1 .638 1.91 2.149 2.149 0 0 1-.2 1.438c-.127.253-.239.515-.373.764-.067.125-.041.181.078.241.21.1.413.224.619.336a.25.25 0 0 1 .115.384c-.09.163-.177.328-.269.49-.127.223-.221.25-.453.123l-3.113-1.7" />
    <path d="M9.568.328h.049c.455.026.764.434.815 1.077a.769.769 0 0 1-.61.842l-.023.006a.689.689 0 0 1-.744-.3 1.227 1.227 0 0 1-.187-1.193.723.723 0 0 1 .7-.433" />
    <path d="M6.433 2.146a.807.807 0 0 1 .538-.817.766.766 0 0 1 .863.284 3.147 3.147 0 0 1 .287.506.767.767 0 0 1-.2.885.741.741 0 0 1-.923.065 1.506 1.506 0 0 1-.562-.923" />
    <path d="M3.009 8.854a2.1 2.1 0 0 1-.719-.209.774.774 0 0 1 .542-1.427 3.642 3.642 0 0 1 .512.142.764.764 0 0 1 .475.88.778.778 0 0 1-.81.614" />
    <path d="M3.737 4.858a1.522 1.522 0 0 1 .913.553.741.741 0 0 1-.061.92.77.77 0 0 1-.88.212 3.043 3.043 0 0 1-.506-.283.758.758 0 0 1-.285-.858.8.8 0 0 1 .819-.544" />
    <path d="M5.589 4.667a1.219 1.219 0 0 1-1.154-1.048.77.77 0 0 1 1.239-.609 2.55 2.55 0 0 1 .411.409.726.726 0 0 1 .085.819.7.7 0 0 1-.581.429" />
  </g>
</svg>