<svg
   xmlns="http://www.w3.org/2000/svg" width="30.007" height="25.721" viewBox="0 0 30.007 25.721">
  <path d="M17.147 0a12.4 12.4 0 0 1 9.109 3.751 12.4 12.4 0 0 1 3.751 9.109 12.4 12.4 0 0 1-3.751 9.109 12.4 12.4 0 0 1-9.109 3.751 12.546 12.546 0 0 1-9.109-3.75l2.076-2.076a9.459 9.459 0 0 0 7.033 2.947 9.623 9.623 0 0 0 7.066-2.914 9.623 9.623 0 0 0 2.914-7.066 9.623 9.623 0 0 0-2.914-7.066 9.623 9.623 0 0 0-7.066-2.915 9.623 9.623 0 0 0-7.066 2.914 9.623 9.623 0 0 0-2.914 7.066h4.287l-5.827 5.76-.067-.2L0 12.86h4.287a12.4 12.4 0 0 1 3.751-9.109A12.4 12.4 0 0 1 17.147 0zm-1.406 7.167h2.143V13.2l4.957 3.014-1 1.742-6.1-3.684z" />
  </svg>