<svg
   xmlns="http://www.w3.org/2000/svg" width="22" height="22" viewBox="0 0 22 22">
  <g transform="translate(-152.638 -294)">
  <circle cx="11" cy="11" r="11" transform="translate(152.638 294)" />
  <path d="M15.1 26.961a1.013 1.013 0 0 1-.306.744l-1.488 1.488a1.057 1.057 0 0 1-1.488 0L8.6 25.976l-3.217 3.218a1.057 1.057 0 0 1-1.488 0l-1.489-1.489a1.057 1.057 0 0 1 0-1.488L5.624 23l-3.218-3.217a1.057 1.057 0 0 1 0-1.488l1.488-1.488a1.057 1.057 0 0 1 1.488 0L8.6 20.024l3.217-3.217a1.057 1.057 0 0 1 1.488 0l1.488 1.488a1.057 1.057 0 0 1 0 1.488L11.576 23l3.217 3.217a1.013 1.013 0 0 1 .307.744z" transform="translate(155.038 282)"/>
  </g>
  </svg>