<svg
   xmlns="http://www.w3.org/2000/svg" width="312.502" height="314.747" viewBox="0 0 312.502 314.747">
  <defs>
  <clipPath id="mnxpmd0sxa">
  <path d="M0 0h312.502v314.747H0z"/>
  </clipPath>
  </defs>
  <g >
  <path d="M575.332 52.27a20.405 20.405 0 0 0 5.188 9.757 20.223 20.223 0 0 0-9.769 5.2 20.409 20.409 0 0 0-5.188-9.757 20.225 20.225 0 0 0 9.769-5.2m1.6-5.267a18.091 18.091 0 0 1-15.548 8.882q-.544 0-1.091-.033a18.087 18.087 0 0 1 8.849 16.639 18.088 18.088 0 0 1 15.547-8.882c.362 0 .727.011 1.091.033A18.085 18.085 0 0 1 576.937 47" transform="translate(-371.204 -31.14)" />
  <path d="M686.823 106.346a20.4 20.4 0 0 0 2.233 10.81q-.746-.055-1.5-.055a20.084 20.084 0 0 0-9.337 2.286 20.4 20.4 0 0 0-2.232-10.811q.746.056 1.5.055a20.081 20.081 0 0 0 9.336-2.285m3.022-4.612a18.076 18.076 0 0 1-18.456 3.809A18.085 18.085 0 0 1 675.2 124a18.076 18.076 0 0 1 18.457-3.809 18.085 18.085 0 0 1-3.809-18.456" transform="translate(-444.803 -67.4)" />
  <path d="M767.332 186.682a20.18 20.18 0 0 0 11.026.893 20.406 20.406 0 0 0-.9 11 20.18 20.18 0 0 0-11.026-.893 20.4 20.4 0 0 0 .9-11m-3.561-4.212a18.084 18.084 0 0 1-1.539 18.782 18.083 18.083 0 0 1 18.783 1.539 18.086 18.086 0 0 1 1.539-18.783 18.083 18.083 0 0 1-18.782-1.539" transform="translate(-504.987 -120.888)" />
  <path d="M827.756 280.989a20.275 20.275 0 0 0 10.327 3.977 20.411 20.411 0 0 0-3.964 10.319 20.276 20.276 0 0 0-10.327-3.977 20.41 20.41 0 0 0 3.964-10.319m-2.233-5.028a18.084 18.084 0 0 1-6.762 17.59 18.06 18.06 0 0 1 17.591 6.762 18.084 18.084 0 0 1 6.762-17.591 17.9 17.9 0 0 1-3.257.3 18.1 18.1 0 0 1-14.334-7.06" transform="translate(-542.438 -182.827)" />
  <path d="M859.859 391.384a20.4 20.4 0 0 0 8.8 6.72 20.406 20.406 0 0 0-6.72 8.8 20.408 20.408 0 0 0-8.8-6.72 20.4 20.4 0 0 0 6.72-8.8m-.73-5.448a18.084 18.084 0 0 1-11.438 14.977 18.084 18.084 0 0 1 14.977 11.439 18.086 18.086 0 0 1 11.438-14.977 18.085 18.085 0 0 1-14.977-11.439" transform="translate(-561.605 -255.687)" />
  <path d="M861.043 508.941a20.4 20.4 0 0 0 6.552 8.924 20.414 20.414 0 0 0-8.925 6.552 20.4 20.4 0 0 0-6.552-8.925 20.4 20.4 0 0 0 8.925-6.552m.833-5.434a18.084 18.084 0 0 1-15.191 11.153 18.086 18.086 0 0 1 11.153 15.191 18.085 18.085 0 0 1 15.191-11.15 18.085 18.085 0 0 1-11.153-15.191" transform="translate(-560.938 -333.579)" />
  <path d="M831.21 624.154a20.4 20.4 0 0 0 3.769 10.4 20.325 20.325 0 0 0-10.4 3.785 20.411 20.411 0 0 0-3.769-10.4 20.329 20.329 0 0 0 10.4-3.785m2.328-4.981a18.059 18.059 0 0 1-17.715 6.427 18.085 18.085 0 0 1 6.427 17.715 18.092 18.092 0 0 1 14.124-6.791 17.912 17.912 0 0 1 3.591.363 18.084 18.084 0 0 1-6.427-17.715" transform="translate(-540.492 -410.209)" />
  <path d="M772.77 727.727a20.4 20.4 0 0 0 .7 11.021 20.173 20.173 0 0 0-11.042.686 20.407 20.407 0 0 0-.7-11.021 20.175 20.175 0 0 0 11.042-.686m3.639-4.142a18.084 18.084 0 0 1-18.808 1.183 18.085 18.085 0 0 1 1.183 18.808 18.084 18.084 0 0 1 18.808-1.183 18.085 18.085 0 0 1-1.183-18.808" transform="translate(-501.919 -479.383)" />
  <path d="M671.5 800.658a20.05 20.05 0 0 0 9.672 2.463q.561 0 1.119-.031a20.411 20.411 0 0 0-2.437 10.764 20.046 20.046 0 0 0-9.672-2.463q-.56 0-1.118.031a20.413 20.413 0 0 0 2.437-10.764m-2.935-4.672a18.085 18.085 0 0 1-4.158 18.381 18.074 18.074 0 0 1 18.381 4.158 18.084 18.084 0 0 1 4.158-18.381 18.074 18.074 0 0 1-18.381-4.158" transform="translate(-440.175 -527.349)" />
  <path d="M563.244 844.642a20.133 20.133 0 0 0 9.667 5.379 20.4 20.4 0 0 0-5.368 9.649 20.132 20.132 0 0 0-9.668-5.379 20.409 20.409 0 0 0 5.368-9.649m-1.5-5.3a18.086 18.086 0 0 1-9.162 16.468q.377-.016.752-.016a18.09 18.09 0 0 1 15.716 9.178 18.085 18.085 0 0 1 9.162-16.468q-.377.016-.753.016a18.089 18.089 0 0 1-15.716-9.178" transform="translate(-366.089 -556.072)" />
  <path d="M448.049 859.144a20.4 20.4 0 0 0 7.769 7.887 20.408 20.408 0 0 0-7.888 7.769 20.4 20.4 0 0 0-7.769-7.887 20.4 20.4 0 0 0 7.888-7.769m.042-5.5a18.087 18.087 0 0 1-13.426 13.225 18.085 18.085 0 0 1 13.224 13.431 18.086 18.086 0 0 1 13.427-13.225 18.084 18.084 0 0 1-13.225-13.426" transform="translate(-287.97 -565.55)" />
  <path d="M335.217 843.025a20.409 20.409 0 0 0 5.225 9.735 20.2 20.2 0 0 0-9.749 5.234 20.408 20.408 0 0 0-5.225-9.736 20.207 20.207 0 0 0 9.749-5.234m1.584-5.274a18.09 18.09 0 0 1-15.582 8.941c-.34 0-.681-.01-1.023-.029a18.085 18.085 0 0 1 8.912 16.6 18.09 18.09 0 0 1 15.582-8.941q.51 0 1.023.029a18.084 18.084 0 0 1-8.912-16.6" transform="translate(-212.133 -555.019)" />
  <path d="M233.859 797.561a20.411 20.411 0 0 0 2.274 10.8q-.708-.05-1.421-.05a20.071 20.071 0 0 0-9.4 2.321 20.41 20.41 0 0 0-2.274-10.8q.708.05 1.422.05a20.077 20.077 0 0 0 9.4-2.321m3.005-4.624a18.074 18.074 0 0 1-18.442 3.879 18.085 18.085 0 0 1 3.879 18.442 18.078 18.078 0 0 1 18.442-3.88 18.084 18.084 0 0 1-3.88-18.442" transform="translate(-144.707 -525.329)" />
  <path d="M138.264 722.678a20.176 20.176 0 0 0 11.03.851 20.412 20.412 0 0 0-.862 11.008 20.177 20.177 0 0 0-11.03-.851 20.409 20.409 0 0 0 .862-11.008m-3.577-4.2a18.086 18.086 0 0 1-1.467 18.788 18.083 18.083 0 0 1 18.788 1.467 18.087 18.087 0 0 1 1.467-18.788 18.082 18.082 0 0 1-18.788-1.467" transform="translate(-88.26 -476.001)" />
  <path d="M73.277 618.268a20.289 20.289 0 0 0 10.342 3.939 20.405 20.405 0 0 0-3.925 10.335 20.289 20.289 0 0 0-10.341-3.942 20.412 20.412 0 0 0 3.925-10.335m-2.252-5.019a18.086 18.086 0 0 1-6.694 17.616 18.058 18.058 0 0 1 17.616 6.694 18.085 18.085 0 0 1 6.694-17.616 17.886 17.886 0 0 1-3.324.311 18.1 18.1 0 0 1-14.292-7.005" transform="translate(-42.62 -406.284)" />
  <path d="M46.23 415.38a31.37 31.37 0 0 0-23.057 23.173A31.371 31.371 0 0 0 0 415.495a31.371 31.371 0 0 0 23.057-23.173A31.37 31.37 0 0 0 46.23 415.38" transform="translate(0 -259.918)" />
  <path d="M144.562 154.294a68.585 68.585 0 0 0-71.31 4.758 68.582 68.582 0 0 0-4.76-71.309 68.586 68.586 0 0 0 71.31-4.76 68.585 68.585 0 0 0 4.759 71.31" transform="translate(-45.377 -54.978)" />
  <path d="M367.1 42.141a28.649 28.649 0 0 0-22.364-19.777A28.651 28.651 0 0 0 364.516 0a28.65 28.65 0 0 0 22.365 19.777A28.651 28.651 0 0 0 367.1 42.141" transform="translate(-228.393 .001)" />
  <path d="M392.489 435.391a31.221 31.221 0 0 1 0 5.143c-1 9.232-9.41 17.447-18.689 18.164-8.6.665-8.866-8.716-3.264-10.118 1.643-.411 3.141-.191 4.995-.834 10.817-3.748 8.09-20.955-5.493-19.891-13.63 1.068-15.63 12.025-22.181 21.015-5.321 7.3-12.275 13.554-20.706 17.019v.712c3.544 5.884 7.543 19.438 14.176 22.184 2.94 1.217 6.553.02 8.6 2.713a5.189 5.189 0 0 1-3.873 8.365l-73.021-.038c-5.542-.965-5.717-9.089-.288-10.189 3.238-.655 4.643.161 7.75-2.192 5.224-3.957 8.7-15.1 11.888-20.851-12.314-3.167-23.092-10.733-31.894-19.707-7.711-7.862-16.756-23.345-28.958-22.119-4.276.43-9.487 5.513-13.211 1.548-3.535-3.763.7-8.562 3.261-11.5 19.662-22.546 40.209-4.563 61.753 2.711l89.8.022c9.35.436 18.234 8.494 19.355 17.843" transform="translate(-143.743 -267.544)" />
  <path d="M434.352 273.548a14.235 14.235 0 0 1-2.188-1.868 29.347 29.347 0 0 1 19.15-11.68 15.391 15.391 0 0 1 22.5-17.844c8.942 4.975 10.231 17.737 2.659 24.619a29.442 29.442 0 0 1 10.681 20.99z" transform="translate(-286.313 -159.029)" />
  </g>
  </svg>