<svg
   xmlns="http://www.w3.org/2000/svg" width="20" height="20" viewBox="0 0 20 20">
  <path d="M10.053 20q-1.484-.742-2.705-1.484a16 16 0 0 1-2.178-1.573q-.957-.83-1.689-1.523a6.7 6.7 0 0 1-1.27-1.68q-.537-.986-.908-1.68A6.9 6.9 0 0 1 .7 10.166Q.463 8.965.326 8.232a16.476 16.476 0 0 1-.2-2.178Q.072 4.609.063 3.789T.053 1.25a39.261 39.261 0 0 1 10-1.25 39.409 39.409 0 0 1 10 1.25q0 1.719-.01 2.549t-.068 2.266a16.7 16.7 0 0 1-.2 2.178q-.137.742-.371 1.934a6.89 6.89 0 0 1-.605 1.885q-.371.693-.908 1.68a6.7 6.7 0 0 1-1.27 1.68q-.732.693-1.689 1.523a16 16 0 0 1-2.178 1.572q-1.221.742-2.705 1.484zm-7.5-16.6q0 1.738.02 2.568t.156 2.2a8.263 8.263 0 0 0 .42 2.09q.283.723.811 1.758a5.888 5.888 0 0 0 1.327 1.744 20.542 20.542 0 0 0 1.992 1.533 20.835 20.835 0 0 0 2.773 1.582 20.835 20.835 0 0 0 2.773-1.582 20.541 20.541 0 0 0 1.992-1.533 5.888 5.888 0 0 0 1.328-1.748q.527-1.035.811-1.758a8.263 8.263 0 0 0 .42-2.09q.137-1.367.156-2.2t.02-2.568a30.658 30.658 0 0 0-7.5-.9 30.658 30.658 0 0 0-7.499.904z" transform="translate(-.053)"/>
  </svg>