<svg
   xmlns="http://www.w3.org/2000/svg" width="19.962" height="23" viewBox="0 0 19.962 23">
  <defs>
  <clipPath id="vxnkki3waa">
  <path d="M0 0h19.962v23H0z"/>
  </clipPath>
  </defs>
  <g >
  <path d="M10.069 0a15.628 15.628 0 0 0 1.853.641 45.054 45.054 0 0 0 8.034 1.651c-.025 2.927.055 5.861-.045 8.785a13.361 13.361 0 0 1-5.423 9.587A24.621 24.621 0 0 1 9.964 23a27.594 27.594 0 0 1-4.332-2.227A13.341 13.341 0 0 1 0 10.407V2.293A43.087 43.087 0 0 0 9.934 0zm2.966 8.45a3.6 3.6 0 0 0-.7-2.742 3.074 3.074 0 0 0-4.72 0 3.589 3.589 0 0 0-.7 2.742A1.529 1.529 0 0 0 5.4 9.69v5.884a1.541 1.541 0 0 0 1.324 1.282c2.08.18 4.413-.139 6.52 0a1.541 1.541 0 0 0 1.324-1.282V9.69a1.515 1.515 0 0 0-1.533-1.24" transform="translate(0 -.001)" />
  <path transform="translate(6.923 9.977)" d="M0 0h6.112v5.348H0z"/>
  <path d="M143.816 104.613h-3.056v-1.056a2.561 2.561 0 0 1 .179-.45 1.538 1.538 0 0 1 2.7 0 2.563 2.563 0 0 1 .179.45z" transform="translate(-132.309 -96.164)" />
  </g>
  </svg>