<svg
   xmlns="http://www.w3.org/2000/svg" width="15" height="15" viewBox="0 0 15 15">
  <path d="M14.063 8.438a.925.925 0 0 1-.937-.937 5.509 5.509 0 0 0-.755-2.82 5.582 5.582 0 0 0-2.051-2.052 5.509 5.509 0 0 0-2.82-.754.913.913 0 0 1-.659-.275.885.885 0 0 1-.279-.655.91.91 0 0 1 .279-.667A.9.9 0 0 1 7.5 0a7.357 7.357 0 0 1 2.915.593 7.339 7.339 0 0 1 3.992 3.992A7.357 7.357 0 0 1 15 7.5a.925.925 0 0 1-.937.937zm-2.805 0a.922.922 0 0 1-.667-.271.894.894 0 0 1-.278-.667A2.8 2.8 0 0 0 7.5 4.688a.913.913 0 0 1-.659-.271.885.885 0 0 1-.278-.659.95.95 0 0 1 .937-.945 4.573 4.573 0 0 1 2.351.63 4.688 4.688 0 0 1 1.706 1.706 4.577 4.577 0 0 1 .63 2.351.907.907 0 0 1-.271.667.9.9 0 0 1-.659.271zM9.375 7.5a1.765 1.765 0 0 1-.791 1.523l3.325 3.34a.862.862 0 0 1 .278.652.91.91 0 0 1-.278.667 3.479 3.479 0 0 1-1.45.82 9.259 9.259 0 0 1-1.772.4 14.443 14.443 0 0 1-1.655.1 9.473 9.473 0 0 1-1.641-.147 7.859 7.859 0 0 1-1.831-.593 5.571 5.571 0 0 1-1.684-1.135A5.5 5.5 0 0 1 .747 11.44 8.264 8.264 0 0 1 .154 9.6 9.144 9.144 0 0 1 0 7.969 15.664 15.664 0 0 1 .088 6.3a8.463 8.463 0 0 1 .4-1.765 3.673 3.673 0 0 1 .828-1.457.909.909 0 0 1 .669-.278.861.861 0 0 1 .652.278l3.34 3.34A1.765 1.765 0 0 1 7.5 5.625 1.875 1.875 0 0 1 9.375 7.5z" />
  </svg>