<svg
   xmlns="http://www.w3.org/2000/svg" width="20" height="20" viewBox="0 0 20 20">
  <path d="M12 2H7.5V.75a.75.75 0 1 0-1.5 0v1.29a6.8 6.8 0 0 0-2.3.416A6 6 0 0 0 .457 5.7C0 6.807 0 8.2 0 11s0 4.194.457 5.3A6 6 0 0 0 3.7 19.543C4.807 20 6.2 20 9 20h2c2.8 0 4.194 0 5.3-.457a6 6 0 0 0 3.243-3.243C20 15.194 20 13.8 20 11s0-4.193-.457-5.3A6 6 0 0 0 16.3 2.457a7.838 7.838 0 0 0-2.8-.436V.75a.75.75 0 1 0-1.5 0zm.828 7.231a.75.75 0 0 0-1.061-1.061L10 9.939 8.232 8.172a.75.75 0 0 0-1.06 1.06L8.939 11l-1.767 1.768a.75.75 0 0 0 1.061 1.061L10 12.061l1.768 1.768a.75.75 0 1 0 1.061-1.061L11.061 11z" />
  </svg>