<svg xmlns="http://www.w3.org/2000/svg" viewBox="0 0 26.88 23.08">
  <g fill="currentColor">
    <path d="M15.818 2.606a7.27 7.27 0 0 0-.542 1.678 13.363 13.363 0 0 0-1.325-.6 9.106 9.106 0 0 0-10.18 14.298A7.778 7.778 0 0 1 8.21 13.649a7.6 7.6 0 0 1 9.168 3.287 8.5 8.5 0 0 0 .551 1.045 9.091 9.091 0 0 1 .544-.783 9.479 9.479 0 0 0 1.461-5.66 8.866 8.866 0 0 0 1.733.162 10.836 10.836 0 1 1-5.848-9.1" />
    <path d="M20.952.023a5.421 5.421 0 1 1-3.8 8.7 5.437 5.437 0 0 1 3.8-8.7m-.422 2.393c-.1.565.075 1.406 0 2-.027.018-.066.081-.081.081h-2c-.353 0-.689.618-.681.947.008.31.351.893.681.893h2a.54.54 0 0 1 .081.081v2a1.228 1.228 0 0 0 .274.43.97.97 0 0 0 1.293 0 1.935 1.935 0 0 0 .274-.43v-2a.542.542 0 0 1 .081-.081h2a1.932 1.932 0 0 0 .43-.274.97.97 0 0 0 0-1.293 1.227 1.227 0 0 0-.43-.274h-2a.546.546 0 0 1-.081-.081v-2c0-.353-.618-.689-.947-.681a1.011 1.011 0 0 0-.893.681" />
    <path d="M10.23 5.111a3.825 3.825 0 1 1-3.059 2.68 3.892 3.892 0 0 1 3.059-2.68" />
  </g>
</svg>