<svg
   xmlns="http://www.w3.org/2000/svg" width="17.25" height="23" viewBox="0 0 17.25 23">
  <g >
  <g >
  <path d="M6 2.875A2.875 2.875 0 0 1 8.875 0h11.5a2.875 2.875 0 0 1 2.875 2.875v17.25A2.875 2.875 0 0 1 20.375 23h-11.5A2.875 2.875 0 0 1 6 20.125zm2.875-1.438a1.437 1.437 0 0 0-1.437 1.438v5.75h14.375v-5.75a1.437 1.437 0 0 0-1.437-1.437zm12.938 8.625H17.5v2.875h4.313zm0 4.312H17.5v2.876h4.313zm0 4.313H17.5v2.875h2.875a1.437 1.437 0 0 0 1.437-1.437zm-5.75 2.875v-2.874H11.75v2.875zm-5.75 0v-2.874H7.438v1.438a1.437 1.437 0 0 0 1.437 1.437zM7.438 17.25h2.875v-2.875H7.438zm0-4.312h2.875v-2.875H7.438zm4.312-2.875v2.875h4.313v-2.875zm4.313 4.312H11.75v2.875h4.313z" transform="translate(-6)" />
  </g>
  </g>
  </svg>