<svg
   xmlns="http://www.w3.org/2000/svg" width="25" height="23.077" viewBox="0 0 25 23.077">
  <path d="M5.769 21.154h13.462v-3.846H5.769zm0-9.615h13.462v-5.77h-2.4a1.436 1.436 0 0 1-1.442-1.442v-2.4h-9.62zm17.308.962a.975.975 0 1 0-.285.676.924.924 0 0 0 .285-.677zM25 12.5v6.25a.487.487 0 0 1-.481.481h-3.365v2.4a1.436 1.436 0 0 1-1.442 1.442H5.288a1.436 1.436 0 0 1-1.442-1.442v-2.4H.481a.462.462 0 0 1-.338-.143A.462.462 0 0 1 0 18.75V12.5a2.777 2.777 0 0 1 .849-2.036 2.777 2.777 0 0 1 2.036-.849h.962V1.442a1.391 1.391 0 0 1 .42-1.021A1.391 1.391 0 0 1 5.288 0h10.1a3.468 3.468 0 0 1 1.322.3 3.5 3.5 0 0 1 1.142.721l2.284 2.284a3.5 3.5 0 0 1 .721 1.142 3.468 3.468 0 0 1 .3 1.322v3.846h.962A2.9 2.9 0 0 1 25 12.5z" />
  </svg>