<svg
   xmlns="http://www.w3.org/2000/svg" width="20" height="20" viewBox="0 0 20 20">
  <g >
  <path d="M24.25 29.25a5 5 0 1 0-5-5 5 5 0 0 0 5 5zm6.25-5A6.25 6.25 0 1 1 24.25 18a6.25 6.25 0 0 1 6.25 6.25z" transform="translate(-10.5 -10.5)" />
  <path d="M28.312 29.805c.059.745.647 1.325 1.7 1.395v.55h.469v-.55c1.094-.076 1.733-.661 1.733-1.509 0-.773-.487-1.17-1.363-1.375l-.37-.087v-1.5a.875.875 0 0 1 .839.665h.823a1.582 1.582 0 0 0-1.661-1.341V25.5h-.469v.563a1.531 1.531 0 0 0-1.569 1.447c0 .7.472 1.15 1.259 1.333l.31.076v1.59a.945.945 0 0 1-.87-.7h-.835zm1.7-1.693c-.461-.106-.711-.325-.711-.653a.758.758 0 0 1 .715-.722v1.375zm.54.933c.561.13.819.34.819.711 0 .424-.321.714-.886.767V29.03z" transform="translate(-16.515 -14.875)" />
  <path d="M1.25 0A1.25 1.25 0 0 0 0 1.25v10a1.25 1.25 0 0 0 1.25 1.25h5.1a7.578 7.578 0 0 1 .322-1.25H3.75a2.5 2.5 0 0 0-2.5-2.5v-5a2.5 2.5 0 0 0 2.5-2.5h12.5a2.5 2.5 0 0 0 2.5 2.5v4.41A7.525 7.525 0 0 1 20 9.6V1.25A1.25 1.25 0 0 0 18.75 0z" />
  <path d="M23 11.605v-.1a2.5 2.5 0 1 0-3.915 2.063A7.477 7.477 0 0 1 23 11.605z" transform="translate(-10.5 -5.252)" />
  </g>
  </svg>