<svg
   xmlns="http://www.w3.org/2000/svg" width="20" height="15.4" viewBox="0 0 20 15.4">
  <g >
  <path d="M36.083 36.48h-.006l-1.685.016-12.306-.016h-.008l-1.766.016a2.1 2.1 0 0 0-2.072 2.157v11.071a2.1 2.1 0 0 0 2.077 2.157h.007l1.765-.016 12.3.016h.011l1.686-.016a2.159 2.159 0 0 0 2.153-2.157V38.637a2.16 2.16 0 0 0-2.156-2.157zM22.855 47.249a.769.769 0 1 1-1.538 0V41.1a.769.769 0 0 1 1.538 0zm3.077 1.538a.769.769 0 0 1-1.538 0v-9.23a.769.769 0 0 1 1.538 0zm3.077-.769a.769.769 0 0 1-1.538 0v-7.692a.769.769 0 0 1 1.538 0zm3.077.769a.769.769 0 0 1-1.538 0v-9.23a.769.769 0 0 1 1.538 0zm3.077-1.538a.769.769 0 1 1-1.538 0V41.1a.769.769 0 0 1 1.538 0z" transform="translate(-18.24 -36.48)"/>
  </g>
  </svg>