<svg
   xmlns="http://www.w3.org/2000/svg" width="20" height="17.5" viewBox="0 0 20 17.5">
  <path d="M21.75 34.333h-7.5v-5H13v5H9.25v-5H8v5a1.25 1.25 0 0 0 1.25 1.25h12.5a1.25 1.25 0 0 0 1.25-1.25v-5h-1.25z" transform="translate(-5.5 -18.083)" />
  <path d="m22.535 11.127-2.55-5.1a1.25 1.25 0 0 0-1.119-.694H6.467a1.25 1.25 0 0 0-1.119.694l-2.55 5.1a1.25 1.25 0 0 0-.131.562v1.925a1.25 1.25 0 0 0 .287.8 2.919 2.919 0 0 0 2.212 1 2.95 2.95 0 0 0 1.875-.669 2.956 2.956 0 0 0 3.75 0 2.956 2.956 0 0 0 3.75 0 2.956 2.956 0 0 0 3.75 0 2.95 2.95 0 0 0 4.081-.325 1.25 1.25 0 0 0 .294-.8v-1.93a1.25 1.25 0 0 0-.131-.562zm-2.369 3.037a1.675 1.675 0 0 1-1.362-.706l-.513-.7-.506.7a1.694 1.694 0 0 1-2.731 0l-.512-.7-.506.7a1.694 1.694 0 0 1-2.731 0l-.513-.7-.506.7a1.694 1.694 0 0 1-2.731 0l-.512-.7-.512.7a1.675 1.675 0 0 1-1.362.706 1.65 1.65 0 0 1-1.25-.55V11.69l2.55-5.106h12.4l2.55 5.1V13.6a1.669 1.669 0 0 1-1.25.569z" transform="translate(-2.667 -5.333)" />
  </svg>